<svg width="200" height="150" viewBox="0 0 200 150" fill="none" xmlns="http://www.w3.org/2000/svg">
<rect width="200" height="150" fill="#F5F5F5"/>
<rect width="200" height="150" fill="#333333"/>
<mask id="path-2-outside-1_0_1" maskUnits="userSpaceOnUse" x="7" y="57" width="185" height="39" fill="black">
<rect fill="white" x="7" y="57" width="185" height="39"/>
<path d="M29.3182 67.8182C29.1136 66.0909 28.2841 64.75 26.8295 63.7955C25.375 62.8409 23.5909 62.3636 21.4773 62.3636C19.9318 62.3636 18.5795 62.6136 17.4205 63.1136C16.2727 63.6136 15.375 64.3011 14.7273 65.1761C14.0909 66.0511 13.7727 67.0455 13.7727 68.1591C13.7727 69.0909 13.9943 69.892 14.4375 70.5625C14.892 71.2216 15.4716 71.7727 16.1761 72.2159C16.8807 72.6477 17.6193 73.0057 18.392 73.2898C19.1648 73.5625 19.875 73.7841 20.5227 73.9545L24.0682 74.9091C24.9773 75.1477 25.9886 75.4773 27.1023 75.8977C28.2273 76.3182 29.3011 76.892 30.3239 77.6193C31.358 78.3352 32.2102 79.2557 32.8807 80.3807C33.5511 81.5057 33.8864 82.8864 33.8864 84.5227C33.8864 86.4091 33.392 88.1136 32.4034 89.6364C31.4261 91.1591 29.9943 92.3693 28.108 93.267C26.233 94.1648 23.9545 94.6136 21.2727 94.6136C18.7727 94.6136 16.608 94.2102 14.7784 93.4034C12.9602 92.5966 11.5284 91.4716 10.483 90.0284C9.44886 88.5852 8.86364 86.9091 8.72727 85H13.0909C13.2045 86.3182 13.6477 87.4091 14.4205 88.2727C15.2045 89.125 16.1932 89.7614 17.3864 90.1818C18.5909 90.5909 19.8864 90.7955 21.2727 90.7955C22.8864 90.7955 24.3352 90.5341 25.6193 90.0114C26.9034 89.4773 27.9205 88.7386 28.6705 87.7955C29.4205 86.8409 29.7955 85.7273 29.7955 84.4545C29.7955 83.2955 29.4716 82.3523 28.8239 81.625C28.1761 80.8977 27.3239 80.3068 26.267 79.8523C25.2102 79.3977 24.0682 79 22.8409 78.6591L18.5455 77.4318C15.8182 76.6477 13.6591 75.5284 12.0682 74.0739C10.4773 72.6193 9.68182 70.7159 9.68182 68.3636C9.68182 66.4091 10.2102 64.7045 11.267 63.25C12.3352 61.7841 13.767 60.6477 15.5625 59.8409C17.3693 59.0227 19.3864 58.6136 21.6136 58.6136C23.8636 58.6136 25.8636 59.017 27.6136 59.8239C29.3636 60.6193 30.75 61.7102 31.7727 63.0966C32.8068 64.483 33.3523 66.0568 33.4091 67.8182H29.3182ZM44.3139 78.25V94H40.2912V59.0909H44.3139V71.9091H44.6548C45.2685 70.5568 46.1889 69.483 47.4162 68.6875C48.6548 67.8807 50.3026 67.4773 52.3594 67.4773C54.1435 67.4773 55.706 67.8352 57.0469 68.5511C58.3878 69.2557 59.4276 70.3409 60.1662 71.8068C60.9162 73.2614 61.2912 75.1136 61.2912 77.3636V94H57.2685V77.6364C57.2685 75.5568 56.7287 73.9489 55.6491 72.8125C54.581 71.6648 53.098 71.0909 51.2003 71.0909C49.8821 71.0909 48.7003 71.3693 47.6548 71.9261C46.6207 72.483 45.8026 73.2955 45.2003 74.3636C44.6094 75.4318 44.3139 76.7273 44.3139 78.25ZM79.2869 94.5455C76.9233 94.5455 74.8494 93.983 73.0653 92.858C71.2926 91.733 69.9062 90.1591 68.9062 88.1364C67.9176 86.1136 67.4233 83.75 67.4233 81.0455C67.4233 78.3182 67.9176 75.9375 68.9062 73.9034C69.9062 71.8693 71.2926 70.2898 73.0653 69.1648C74.8494 68.0398 76.9233 67.4773 79.2869 67.4773C81.6506 67.4773 83.7188 68.0398 85.4915 69.1648C87.2756 70.2898 88.6619 71.8693 89.6506 73.9034C90.6506 75.9375 91.1506 78.3182 91.1506 81.0455C91.1506 83.75 90.6506 86.1136 89.6506 88.1364C88.6619 90.1591 87.2756 91.733 85.4915 92.858C83.7188 93.983 81.6506 94.5455 79.2869 94.5455ZM79.2869 90.9318C81.0824 90.9318 82.5597 90.4716 83.7188 89.5511C84.8778 88.6307 85.7358 87.4205 86.2926 85.9205C86.8494 84.4205 87.1278 82.7955 87.1278 81.0455C87.1278 79.2955 86.8494 77.6648 86.2926 76.1534C85.7358 74.642 84.8778 73.4205 83.7188 72.4886C82.5597 71.5568 81.0824 71.0909 79.2869 71.0909C77.4915 71.0909 76.0142 71.5568 74.8551 72.4886C73.696 73.4205 72.8381 74.642 72.2812 76.1534C71.7244 77.6648 71.446 79.2955 71.446 81.0455C71.446 82.7955 71.7244 84.4205 72.2812 85.9205C72.8381 87.4205 73.696 88.6307 74.8551 89.5511C76.0142 90.4716 77.4915 90.9318 79.2869 90.9318ZM108.268 94.5455C105.746 94.5455 103.57 93.9886 101.74 92.875C99.9219 91.75 98.5185 90.1818 97.5298 88.1705C96.5526 86.1477 96.0639 83.7955 96.0639 81.1136C96.0639 78.4318 96.5526 76.0682 97.5298 74.0227C98.5185 71.9659 99.8935 70.3636 101.655 69.2159C103.428 68.0568 105.496 67.4773 107.859 67.4773C109.223 67.4773 110.57 67.7045 111.899 68.1591C113.229 68.6136 114.439 69.3523 115.53 70.375C116.621 71.3864 117.49 72.7273 118.138 74.3977C118.786 76.0682 119.109 78.125 119.109 80.5682V82.2727H98.9276V78.7955H115.018C115.018 77.3182 114.723 76 114.132 74.8409C113.553 73.6818 112.723 72.767 111.643 72.0966C110.575 71.4261 109.314 71.0909 107.859 71.0909C106.257 71.0909 104.871 71.4886 103.7 72.2841C102.541 73.0682 101.649 74.0909 101.024 75.3523C100.399 76.6136 100.087 77.9659 100.087 79.4091V81.7273C100.087 83.7045 100.428 85.3807 101.109 86.7557C101.803 88.1193 102.763 89.1591 103.99 89.875C105.217 90.5795 106.643 90.9318 108.268 90.9318C109.325 90.9318 110.28 90.7841 111.132 90.4886C111.996 90.1818 112.74 89.7273 113.365 89.125C113.99 88.5114 114.473 87.75 114.814 86.8409L118.7 87.9318C118.291 89.25 117.604 90.4091 116.638 91.4091C115.672 92.3977 114.479 93.1705 113.058 93.7273C111.638 94.2727 110.041 94.5455 108.268 94.5455ZM155.229 76.5455C155.229 80.2273 154.564 83.4091 153.234 86.0909C151.905 88.7727 150.081 90.8409 147.763 92.2955C145.445 93.75 142.797 94.4773 139.82 94.4773C136.842 94.4773 134.195 93.75 131.876 92.2955C129.558 90.8409 127.734 88.7727 126.405 86.0909C125.075 83.4091 124.411 80.2273 124.411 76.5455C124.411 72.8636 125.075 69.6818 126.405 67C127.734 64.3182 129.558 62.25 131.876 60.7955C134.195 59.3409 136.842 58.6136 139.82 58.6136C142.797 58.6136 145.445 59.3409 147.763 60.7955C150.081 62.25 151.905 64.3182 153.234 67C154.564 69.6818 155.229 72.8636 155.229 76.5455ZM151.138 76.5455C151.138 73.5227 150.632 70.9716 149.621 68.892C148.621 66.8125 147.263 65.2386 145.547 64.1705C143.842 63.1023 141.933 62.5682 139.82 62.5682C137.706 62.5682 135.791 63.1023 134.075 64.1705C132.371 65.2386 131.013 66.8125 130.001 68.892C129.001 70.9716 128.501 73.5227 128.501 76.5455C128.501 79.5682 129.001 82.1193 130.001 84.1989C131.013 86.2784 132.371 87.8523 134.075 88.9205C135.791 89.9886 137.706 90.5227 139.82 90.5227C141.933 90.5227 143.842 89.9886 145.547 88.9205C147.263 87.8523 148.621 86.2784 149.621 84.1989C150.632 82.1193 151.138 79.5682 151.138 76.5455ZM190.018 59.0909V94H185.928L166.905 66.5909H166.564V94H162.337V59.0909H166.428L185.518 86.5682H185.859V59.0909H190.018Z"/>
</mask>
<path d="M29.3182 67.8182C29.1136 66.0909 28.2841 64.75 26.8295 63.7955C25.375 62.8409 23.5909 62.3636 21.4773 62.3636C19.9318 62.3636 18.5795 62.6136 17.4205 63.1136C16.2727 63.6136 15.375 64.3011 14.7273 65.1761C14.0909 66.0511 13.7727 67.0455 13.7727 68.1591C13.7727 69.0909 13.9943 69.892 14.4375 70.5625C14.892 71.2216 15.4716 71.7727 16.1761 72.2159C16.8807 72.6477 17.6193 73.0057 18.392 73.2898C19.1648 73.5625 19.875 73.7841 20.5227 73.9545L24.0682 74.9091C24.9773 75.1477 25.9886 75.4773 27.1023 75.8977C28.2273 76.3182 29.3011 76.892 30.3239 77.6193C31.358 78.3352 32.2102 79.2557 32.8807 80.3807C33.5511 81.5057 33.8864 82.8864 33.8864 84.5227C33.8864 86.4091 33.392 88.1136 32.4034 89.6364C31.4261 91.1591 29.9943 92.3693 28.108 93.267C26.233 94.1648 23.9545 94.6136 21.2727 94.6136C18.7727 94.6136 16.608 94.2102 14.7784 93.4034C12.9602 92.5966 11.5284 91.4716 10.483 90.0284C9.44886 88.5852 8.86364 86.9091 8.72727 85H13.0909C13.2045 86.3182 13.6477 87.4091 14.4205 88.2727C15.2045 89.125 16.1932 89.7614 17.3864 90.1818C18.5909 90.5909 19.8864 90.7955 21.2727 90.7955C22.8864 90.7955 24.3352 90.5341 25.6193 90.0114C26.9034 89.4773 27.9205 88.7386 28.6705 87.7955C29.4205 86.8409 29.7955 85.7273 29.7955 84.4545C29.7955 83.2955 29.4716 82.3523 28.8239 81.625C28.1761 80.8977 27.3239 80.3068 26.267 79.8523C25.2102 79.3977 24.0682 79 22.8409 78.6591L18.5455 77.4318C15.8182 76.6477 13.6591 75.5284 12.0682 74.0739C10.4773 72.6193 9.68182 70.7159 9.68182 68.3636C9.68182 66.4091 10.2102 64.7045 11.267 63.25C12.3352 61.7841 13.767 60.6477 15.5625 59.8409C17.3693 59.0227 19.3864 58.6136 21.6136 58.6136C23.8636 58.6136 25.8636 59.017 27.6136 59.8239C29.3636 60.6193 30.75 61.7102 31.7727 63.0966C32.8068 64.483 33.3523 66.0568 33.4091 67.8182H29.3182ZM44.3139 78.25V94H40.2912V59.0909H44.3139V71.9091H44.6548C45.2685 70.5568 46.1889 69.483 47.4162 68.6875C48.6548 67.8807 50.3026 67.4773 52.3594 67.4773C54.1435 67.4773 55.706 67.8352 57.0469 68.5511C58.3878 69.2557 59.4276 70.3409 60.1662 71.8068C60.9162 73.2614 61.2912 75.1136 61.2912 77.3636V94H57.2685V77.6364C57.2685 75.5568 56.7287 73.9489 55.6491 72.8125C54.581 71.6648 53.098 71.0909 51.2003 71.0909C49.8821 71.0909 48.7003 71.3693 47.6548 71.9261C46.6207 72.483 45.8026 73.2955 45.2003 74.3636C44.6094 75.4318 44.3139 76.7273 44.3139 78.25ZM79.2869 94.5455C76.9233 94.5455 74.8494 93.983 73.0653 92.858C71.2926 91.733 69.9062 90.1591 68.9062 88.1364C67.9176 86.1136 67.4233 83.75 67.4233 81.0455C67.4233 78.3182 67.9176 75.9375 68.9062 73.9034C69.9062 71.8693 71.2926 70.2898 73.0653 69.1648C74.8494 68.0398 76.9233 67.4773 79.2869 67.4773C81.6506 67.4773 83.7188 68.0398 85.4915 69.1648C87.2756 70.2898 88.6619 71.8693 89.6506 73.9034C90.6506 75.9375 91.1506 78.3182 91.1506 81.0455C91.1506 83.75 90.6506 86.1136 89.6506 88.1364C88.6619 90.1591 87.2756 91.733 85.4915 92.858C83.7188 93.983 81.6506 94.5455 79.2869 94.5455ZM79.2869 90.9318C81.0824 90.9318 82.5597 90.4716 83.7188 89.5511C84.8778 88.6307 85.7358 87.4205 86.2926 85.9205C86.8494 84.4205 87.1278 82.7955 87.1278 81.0455C87.1278 79.2955 86.8494 77.6648 86.2926 76.1534C85.7358 74.642 84.8778 73.4205 83.7188 72.4886C82.5597 71.5568 81.0824 71.0909 79.2869 71.0909C77.4915 71.0909 76.0142 71.5568 74.8551 72.4886C73.696 73.4205 72.8381 74.642 72.2812 76.1534C71.7244 77.6648 71.446 79.2955 71.446 81.0455C71.446 82.7955 71.7244 84.4205 72.2812 85.9205C72.8381 87.4205 73.696 88.6307 74.8551 89.5511C76.0142 90.4716 77.4915 90.9318 79.2869 90.9318ZM108.268 94.5455C105.746 94.5455 103.57 93.9886 101.74 92.875C99.9219 91.75 98.5185 90.1818 97.5298 88.1705C96.5526 86.1477 96.0639 83.7955 96.0639 81.1136C96.0639 78.4318 96.5526 76.0682 97.5298 74.0227C98.5185 71.9659 99.8935 70.3636 101.655 69.2159C103.428 68.0568 105.496 67.4773 107.859 67.4773C109.223 67.4773 110.57 67.7045 111.899 68.1591C113.229 68.6136 114.439 69.3523 115.53 70.375C116.621 71.3864 117.49 72.7273 118.138 74.3977C118.786 76.0682 119.109 78.125 119.109 80.5682V82.2727H98.9276V78.7955H115.018C115.018 77.3182 114.723 76 114.132 74.8409C113.553 73.6818 112.723 72.767 111.643 72.0966C110.575 71.4261 109.314 71.0909 107.859 71.0909C106.257 71.0909 104.871 71.4886 103.7 72.2841C102.541 73.0682 101.649 74.0909 101.024 75.3523C100.399 76.6136 100.087 77.9659 100.087 79.4091V81.7273C100.087 83.7045 100.428 85.3807 101.109 86.7557C101.803 88.1193 102.763 89.1591 103.99 89.875C105.217 90.5795 106.643 90.9318 108.268 90.9318C109.325 90.9318 110.28 90.7841 111.132 90.4886C111.996 90.1818 112.74 89.7273 113.365 89.125C113.99 88.5114 114.473 87.75 114.814 86.8409L118.7 87.9318C118.291 89.25 117.604 90.4091 116.638 91.4091C115.672 92.3977 114.479 93.1705 113.058 93.7273C111.638 94.2727 110.041 94.5455 108.268 94.5455ZM155.229 76.5455C155.229 80.2273 154.564 83.4091 153.234 86.0909C151.905 88.7727 150.081 90.8409 147.763 92.2955C145.445 93.75 142.797 94.4773 139.82 94.4773C136.842 94.4773 134.195 93.75 131.876 92.2955C129.558 90.8409 127.734 88.7727 126.405 86.0909C125.075 83.4091 124.411 80.2273 124.411 76.5455C124.411 72.8636 125.075 69.6818 126.405 67C127.734 64.3182 129.558 62.25 131.876 60.7955C134.195 59.3409 136.842 58.6136 139.82 58.6136C142.797 58.6136 145.445 59.3409 147.763 60.7955C150.081 62.25 151.905 64.3182 153.234 67C154.564 69.6818 155.229 72.8636 155.229 76.5455ZM151.138 76.5455C151.138 73.5227 150.632 70.9716 149.621 68.892C148.621 66.8125 147.263 65.2386 145.547 64.1705C143.842 63.1023 141.933 62.5682 139.82 62.5682C137.706 62.5682 135.791 63.1023 134.075 64.1705C132.371 65.2386 131.013 66.8125 130.001 68.892C129.001 70.9716 128.501 73.5227 128.501 76.5455C128.501 79.5682 129.001 82.1193 130.001 84.1989C131.013 86.2784 132.371 87.8523 134.075 88.9205C135.791 89.9886 137.706 90.5227 139.82 90.5227C141.933 90.5227 143.842 89.9886 145.547 88.9205C147.263 87.8523 148.621 86.2784 149.621 84.1989C150.632 82.1193 151.138 79.5682 151.138 76.5455ZM190.018 59.0909V94H185.928L166.905 66.5909H166.564V94H162.337V59.0909H166.428L185.518 86.5682H185.859V59.0909H190.018Z" fill="white"/>
<path d="M29.3182 67.8182L28.3251 67.9358L28.4296 68.8182H29.3182V67.8182ZM26.8295 63.7955L26.2809 64.6315L26.2809 64.6315L26.8295 63.7955ZM17.4205 63.1136L17.0244 62.1954L17.0211 62.1969L17.4205 63.1136ZM14.7273 65.1761L13.9235 64.5811L13.9185 64.588L14.7273 65.1761ZM14.4375 70.5625L13.6033 71.1139L13.6087 71.1221L13.6143 71.1302L14.4375 70.5625ZM16.1761 72.2159L15.6436 73.0624L15.6536 73.0685L16.1761 72.2159ZM18.392 73.2898L18.047 74.2284L18.0592 74.2328L18.392 73.2898ZM20.5227 73.9545L20.7827 72.9889L20.7772 72.9875L20.5227 73.9545ZM24.0682 74.9091L23.8082 75.8747L23.8143 75.8763L24.0682 74.9091ZM27.1023 75.8977L26.7491 76.8333L26.7522 76.8344L27.1023 75.8977ZM30.3239 77.6193L29.7443 78.4343L29.7547 78.4415L30.3239 77.6193ZM32.8807 80.3807L33.7397 79.8687L33.7397 79.8687L32.8807 80.3807ZM32.4034 89.6364L31.5647 89.0918L31.5618 89.0962L32.4034 89.6364ZM28.108 93.267L27.6782 92.3641L27.6761 92.3651L28.108 93.267ZM14.7784 93.4034L14.3728 94.3175L14.3749 94.3184L14.7784 93.4034ZM10.483 90.0284L9.67008 90.6109L9.67312 90.6151L10.483 90.0284ZM8.72727 85V84H7.6533L7.72981 85.0712L8.72727 85ZM13.0909 85L14.0872 84.9141L14.0084 84H13.0909V85ZM14.4205 88.2727L13.6751 88.9396L13.6845 88.9498L14.4205 88.2727ZM17.3864 90.1818L17.054 91.125L17.0648 91.1287L17.3864 90.1818ZM25.6193 90.0114L25.9964 90.9376L26.0034 90.9347L25.6193 90.0114ZM28.6705 87.7955L29.4532 88.4179L29.4568 88.4133L28.6705 87.7955ZM28.8239 81.625L29.5706 80.9599L29.5706 80.9599L28.8239 81.625ZM26.267 79.8523L25.8719 80.7709L25.8719 80.7709L26.267 79.8523ZM22.8409 78.6591L22.5662 79.6206L22.5733 79.6226L22.8409 78.6591ZM18.5455 77.4318L18.2691 78.3929L18.2707 78.3933L18.5455 77.4318ZM12.0682 74.0739L11.3934 74.8119L11.3934 74.8119L12.0682 74.0739ZM11.267 63.25L10.4589 62.6611L10.458 62.6622L11.267 63.25ZM15.5625 59.8409L15.9724 60.753L15.975 60.7519L15.5625 59.8409ZM27.6136 59.8239L27.1949 60.732L27.1998 60.7342L27.6136 59.8239ZM31.7727 63.0966L30.968 63.6902L30.9712 63.6945L31.7727 63.0966ZM33.4091 67.8182V68.8182H34.4419L34.4086 67.7859L33.4091 67.8182ZM30.3112 67.7006C30.0719 65.6799 29.0797 64.076 27.3782 62.9594L26.2809 64.6315C27.4885 65.424 28.1553 66.502 28.3251 67.9358L30.3112 67.7006ZM27.3782 62.9594C25.7286 61.8768 23.7436 61.3636 21.4773 61.3636V63.3636C23.4382 63.3636 25.0214 63.805 26.2809 64.6315L27.3782 62.9594ZM21.4773 61.3636C19.8254 61.3636 18.3332 61.6308 17.0244 62.1954L17.8165 64.0318C18.8258 63.5965 20.0383 63.3636 21.4773 63.3636V61.3636ZM17.0211 62.1969C15.7371 62.7562 14.6903 63.5453 13.9235 64.5812L15.531 65.7711C16.0597 65.0569 16.8083 64.4711 17.8198 64.0304L17.0211 62.1969ZM13.9185 64.588C13.154 65.6392 12.7727 66.8407 12.7727 68.1591H14.7727C14.7727 67.2502 15.0278 66.4631 15.536 65.7643L13.9185 64.588ZM12.7727 68.1591C12.7727 69.255 13.0356 70.2551 13.6033 71.1139L15.2717 70.0111C14.9531 69.529 14.7727 68.9269 14.7727 68.1591H12.7727ZM13.6143 71.1302C14.1489 71.9054 14.829 72.5499 15.6437 73.0624L16.7086 71.3694C16.1142 70.9956 15.6352 70.5378 15.2607 69.9948L13.6143 71.1302ZM15.6536 73.0685C16.4141 73.5346 17.2122 73.9214 18.047 74.2284L18.7371 72.3512C18.0265 72.0899 17.3473 71.7608 16.6987 71.3633L15.6536 73.0685ZM18.0592 74.2328C18.8523 74.5127 19.589 74.7429 20.2682 74.9216L20.7772 72.9875C20.161 72.8253 19.4773 72.6123 18.7249 72.3468L18.0592 74.2328ZM20.2628 74.9202L23.8082 75.8747L24.3282 73.9435L20.7827 72.9889L20.2628 74.9202ZM23.8143 75.8763C24.6823 76.1042 25.6598 76.422 26.7491 76.8333L27.4555 74.9622C26.3174 74.5325 25.2723 74.1913 24.3221 73.9419L23.8143 75.8763ZM26.7522 76.8344C27.7922 77.2231 28.7893 77.7551 29.7443 78.4343L30.9034 76.8044C29.813 76.029 28.6624 75.4132 27.4524 74.961L26.7522 76.8344ZM29.7547 78.4415C30.6662 79.0726 31.4214 79.8854 32.0217 80.8926L33.7397 79.8687C32.9991 78.626 32.0497 77.5979 30.8931 76.7971L29.7547 78.4415ZM32.0217 80.8926C32.5794 81.8285 32.8864 83.022 32.8864 84.5227H34.8864C34.8864 82.7507 34.5228 81.1828 33.7397 79.8687L32.0217 80.8926ZM32.8864 84.5227C32.8864 86.2238 32.4438 87.7378 31.5647 89.0918L33.2421 90.1809C34.3403 88.4895 34.8864 86.5944 34.8864 84.5227H32.8864ZM31.5618 89.0962C30.7001 90.4389 29.4227 91.5339 27.6782 92.3641L28.5377 94.17C30.5659 93.2048 32.1522 91.8792 33.245 90.1765L31.5618 89.0962ZM27.6761 92.3651C25.9691 93.1824 23.8469 93.6136 21.2727 93.6136V95.6136C24.0622 95.6136 26.4968 95.1472 28.5398 94.169L27.6761 92.3651ZM21.2727 93.6136C18.878 93.6136 16.8567 93.227 15.1819 92.4884L14.3749 94.3184C16.3592 95.1934 18.6675 95.6136 21.2727 95.6136V93.6136ZM15.184 92.4894C13.5079 91.7456 12.2231 90.726 11.2928 89.4418L9.67312 90.6151C10.8337 92.2172 12.4125 93.4476 14.3728 94.3175L15.184 92.4894ZM11.2958 89.446C10.3777 88.1646 9.84901 86.6686 9.72473 84.9288L7.72981 85.0712C7.87827 87.1496 8.52006 89.0059 9.67009 90.6109L11.2958 89.446ZM8.72727 86H13.0909V84H8.72727V86ZM12.0946 85.0859C12.2241 86.5879 12.7381 87.8922 13.6752 88.9395L15.1657 87.6059C14.5573 86.926 14.185 86.0485 14.0872 84.9141L12.0946 85.0859ZM13.6845 88.9498C14.5894 89.9333 15.7211 90.6553 17.054 91.125L17.7187 89.2387C16.6652 88.8674 15.8197 88.3167 15.1564 87.5957L13.6845 88.9498ZM17.0648 91.1287C18.3818 91.576 19.7868 91.7955 21.2727 91.7955V89.7955C19.9859 89.7955 18.8 89.6058 17.7079 89.2349L17.0648 91.1287ZM21.2727 91.7955C22.9947 91.7955 24.5746 91.5163 25.9964 90.9376L25.2423 89.0852C24.0959 89.5518 22.778 89.7955 21.2727 89.7955V91.7955ZM26.0034 90.9347C27.4194 90.3457 28.5826 89.5126 29.4532 88.4178L27.8877 87.1731C27.2583 87.9647 26.3875 88.6088 25.2353 89.088L26.0034 90.9347ZM29.4568 88.4133C30.3522 87.2736 30.7955 85.9397 30.7955 84.4545H28.7955C28.7955 85.5149 28.4887 86.4082 27.8841 87.1776L29.4568 88.4133ZM30.7955 84.4545C30.7955 83.0994 30.4115 81.904 29.5706 80.9599L28.0771 82.2901C28.5317 82.8005 28.7955 83.4915 28.7955 84.4545H30.7955ZM29.5706 80.9599C28.8096 80.1054 27.8292 79.4356 26.6622 78.9336L25.8719 80.7709C26.8185 81.178 27.5427 81.6901 28.0771 82.2901L29.5706 80.9599ZM26.6622 78.9336C25.5598 78.4595 24.3747 78.0473 23.1086 77.6956L22.5733 79.6226C23.7616 79.9527 24.8607 80.336 25.8719 80.7709L26.6622 78.9336ZM23.1156 77.6976L18.8202 76.4703L18.2707 78.3933L22.5662 79.6206L23.1156 77.6976ZM18.8218 76.4707C16.1977 75.7163 14.1899 74.6587 12.743 73.3358L11.3934 74.8119C13.1283 76.3981 15.4387 77.5791 18.2691 78.3929L18.8218 76.4707ZM12.743 73.3358C11.3795 72.0892 10.6818 70.4638 10.6818 68.3636H8.68182C8.68182 70.968 9.57508 73.1494 11.3934 74.8119L12.743 73.3358ZM10.6818 68.3636C10.6818 66.6009 11.1543 65.1064 12.0761 63.8378L10.458 62.6622C9.26614 64.3027 8.68182 66.2173 8.68182 68.3636H10.6818ZM12.0752 63.8389C13.0324 62.5254 14.3216 61.4948 15.9724 60.753L15.1526 58.9288C13.2125 59.8006 11.6381 61.0428 10.4589 62.6611L12.0752 63.8389ZM15.975 60.7519C17.6371 59.9992 19.5111 59.6136 21.6136 59.6136V57.6136C19.2616 57.6136 17.1015 58.0463 15.15 58.93L15.975 60.7519ZM21.6136 59.6136C23.7431 59.6136 25.5964 59.995 27.195 60.732L28.0323 58.9157C26.1308 58.0391 23.9841 57.6136 21.6136 57.6136V59.6136ZM27.1998 60.7342C28.813 61.4675 30.0578 62.4564 30.968 63.6902L32.5775 62.5029C31.4422 60.9641 29.9143 59.7711 28.0274 58.9135L27.1998 60.7342ZM30.9712 63.6945C31.8806 64.9137 32.3593 66.2893 32.4096 67.8504L34.4086 67.7859C34.3453 65.8244 33.7331 64.0522 32.5743 62.4987L30.9712 63.6945ZM33.4091 66.8182H29.3182V68.8182H33.4091V66.8182ZM44.3139 94V95H45.3139V94H44.3139ZM40.2912 94H39.2912V95H40.2912V94ZM40.2912 59.0909V58.0909H39.2912V59.0909H40.2912ZM44.3139 59.0909H45.3139V58.0909H44.3139V59.0909ZM44.3139 71.9091H43.3139V72.9091H44.3139V71.9091ZM44.6548 71.9091V72.9091H45.2992L45.5655 72.3223L44.6548 71.9091ZM47.4162 68.6875L47.9601 69.5267L47.962 69.5254L47.4162 68.6875ZM57.0469 68.5511L56.5759 69.4333L56.5817 69.4364L57.0469 68.5511ZM60.1662 71.8068L59.2731 72.2568L59.2774 72.2651L60.1662 71.8068ZM61.2912 94V95H62.2912V94H61.2912ZM57.2685 94H56.2685V95H57.2685V94ZM55.6491 72.8125L54.9171 73.4938L54.9241 73.5012L55.6491 72.8125ZM47.6548 71.9261L47.1847 71.0435L47.1807 71.0457L47.6548 71.9261ZM45.2003 74.3636L44.3292 73.8725L44.3253 73.8796L45.2003 74.3636ZM43.3139 78.25V94H45.3139V78.25H43.3139ZM44.3139 93H40.2912V95H44.3139V93ZM41.2912 94V59.0909H39.2912V94H41.2912ZM40.2912 60.0909H44.3139V58.0909H40.2912V60.0909ZM43.3139 59.0909V71.9091H45.3139V59.0909H43.3139ZM44.3139 72.9091H44.6548V70.9091H44.3139V72.9091ZM45.5655 72.3223C46.1014 71.1413 46.8959 70.2164 47.9601 69.5267L46.8723 67.8483C45.482 68.7495 44.4356 69.9723 43.7442 71.4959L45.5655 72.3223ZM47.962 69.5254C48.9863 68.8582 50.4233 68.4773 52.3594 68.4773V66.4773C50.1818 66.4773 48.3234 66.9032 46.8704 67.8496L47.962 69.5254ZM52.3594 68.4773C54.0078 68.4773 55.4032 68.8072 56.5759 69.4333L57.5179 67.669C56.0087 66.8633 54.2792 66.4773 52.3594 66.4773V68.4773ZM56.5817 69.4364C57.7225 70.0358 58.62 70.9606 59.2732 72.2568L61.0592 71.3568C60.2351 69.7212 59.0531 68.4756 57.512 67.6659L56.5817 69.4364ZM59.2774 72.2651C59.9322 73.5349 60.2912 75.2164 60.2912 77.3636H62.2912C62.2912 75.0108 61.9002 72.9878 61.055 71.3485L59.2774 72.2651ZM60.2912 77.3636V94H62.2912V77.3636H60.2912ZM61.2912 93H57.2685V95H61.2912V93ZM58.2685 94V77.6364H56.2685V94H58.2685ZM58.2685 77.6364C58.2685 75.3865 57.6817 73.5001 56.3741 72.1238L54.9241 73.5012C55.7757 74.3976 56.2685 75.7271 56.2685 77.6364H58.2685ZM56.3812 72.1312C55.0847 70.7382 53.3126 70.0909 51.2003 70.0909V72.0909C52.8834 72.0909 54.0772 72.5913 54.9171 73.4938L56.3812 72.1312ZM51.2003 70.0909C49.737 70.0909 48.3906 70.4012 47.1847 71.0435L48.1249 72.8088C49.0099 72.3374 50.0272 72.0909 51.2003 72.0909V70.0909ZM47.1807 71.0457C45.9726 71.6962 45.02 72.6472 44.3292 73.8725L46.0714 74.8548C46.5851 73.9437 47.2689 73.2697 48.1289 72.8066L47.1807 71.0457ZM44.3253 73.8796C43.6345 75.1283 43.3139 76.5992 43.3139 78.25H45.3139C45.3139 76.8553 45.5843 75.7354 46.0753 74.8477L44.3253 73.8796ZM73.0653 92.858L72.5295 93.7023L72.532 93.7038L73.0653 92.858ZM68.9062 88.1364L68.0078 88.5755L68.0098 88.5795L68.9062 88.1364ZM68.9062 73.9034L68.0088 73.4622L68.0069 73.4663L68.9062 73.9034ZM73.0653 69.1648L72.532 68.3189L72.5295 68.3204L73.0653 69.1648ZM85.4915 69.1648L84.9557 70.0091L84.9581 70.0106L85.4915 69.1648ZM89.6506 73.9034L88.7512 74.3405L88.7532 74.3446L89.6506 73.9034ZM89.6506 88.1364L88.7541 87.6932L88.7521 87.6972L89.6506 88.1364ZM85.4915 92.858L84.9581 92.0121L84.9557 92.0136L85.4915 92.858ZM83.7188 89.5511L83.0969 88.768L83.0969 88.768L83.7188 89.5511ZM86.2926 85.9205L87.2301 86.2685L87.2301 86.2685L86.2926 85.9205ZM86.2926 76.1534L87.231 75.8077L87.231 75.8077L86.2926 76.1534ZM83.7188 72.4886L84.3453 71.7093L84.3453 71.7093L83.7188 72.4886ZM74.8551 72.4886L74.2286 71.7093L74.2286 71.7093L74.8551 72.4886ZM72.2812 76.1534L71.3429 75.8077L71.3429 75.8077L72.2812 76.1534ZM72.2812 85.9205L71.3438 86.2685L71.3438 86.2685L72.2812 85.9205ZM74.8551 89.5511L75.477 88.768L75.477 88.768L74.8551 89.5511ZM79.2869 93.5455C77.0886 93.5455 75.2044 93.0246 73.5987 92.0121L72.532 93.7038C74.4945 94.9413 76.758 95.5455 79.2869 95.5455V93.5455ZM73.6012 92.0136C71.9947 90.9941 70.7278 89.5644 69.8027 87.6932L68.0098 88.5795C69.0847 90.7538 70.5905 92.4718 72.5295 93.7023L73.6012 92.0136ZM69.8047 87.6972C68.895 85.8361 68.4233 83.6281 68.4233 81.0455H66.4233C66.4233 83.8719 66.9402 86.3912 68.0078 88.5755L69.8047 87.6972ZM68.4233 81.0455C68.4233 78.4389 68.8955 76.2132 69.8056 74.3405L68.0069 73.4663C66.9398 75.6618 66.4233 78.1975 66.4233 81.0455H68.4233ZM69.8037 74.3446C70.7292 72.462 71.9961 71.0277 73.6012 70.0091L72.5295 68.3204C70.5891 69.5518 69.0833 71.2767 68.0088 73.4622L69.8037 74.3446ZM73.5987 70.0106C75.2044 68.9982 77.0886 68.4773 79.2869 68.4773V66.4773C76.758 66.4773 74.4945 67.0814 72.532 68.3189L73.5987 70.0106ZM79.2869 68.4773C81.4854 68.4773 83.3627 68.9982 84.9557 70.0091L86.0273 68.3204C84.0748 67.0814 81.8158 66.4773 79.2869 66.4773V68.4773ZM84.9581 70.0106C86.573 71.029 87.8379 72.4615 88.7512 74.3405L90.55 73.4663C89.486 71.2771 87.9781 69.5506 86.0249 68.3189L84.9581 70.0106ZM88.7532 74.3446C89.6733 76.2163 90.1506 78.4404 90.1506 81.0455H92.1506C92.1506 78.1959 91.6278 75.6587 90.548 73.4622L88.7532 74.3446ZM90.1506 81.0455C90.1506 83.6265 89.6738 85.833 88.7541 87.6932L90.547 88.5795C91.6274 86.3943 92.1506 83.8735 92.1506 81.0455H90.1506ZM88.7521 87.6972C87.8393 89.5648 86.5744 90.9929 84.9581 92.0121L86.0249 93.7038C87.9767 92.473 89.4845 90.7533 90.549 88.5755L88.7521 87.6972ZM84.9557 92.0136C83.3627 93.0245 81.4854 93.5455 79.2869 93.5455V95.5455C81.8158 95.5455 84.0748 94.9414 86.0273 93.7023L84.9557 92.0136ZM79.2869 91.9318C81.2586 91.9318 82.9694 91.4232 84.3406 90.3342L83.0969 88.768C82.15 89.52 80.9062 89.9318 79.2869 89.9318V91.9318ZM84.3406 90.3342C85.6542 89.2911 86.6151 87.9252 87.2301 86.2685L85.3551 85.5724C84.8565 86.9157 84.1015 87.9703 83.0969 88.768L84.3406 90.3342ZM87.2301 86.2685C87.832 84.6471 88.1278 82.9031 88.1278 81.0455H86.1278C86.1278 82.6878 85.8669 84.1938 85.3551 85.5724L87.2301 86.2685ZM88.1278 81.0455C88.1278 79.1877 87.8319 77.439 87.231 75.8077L85.3543 76.4991C85.8669 77.8906 86.1278 79.4032 86.1278 81.0455H88.1278ZM87.231 75.8077C86.6168 74.1408 85.6574 72.7641 84.3453 71.7093L83.0922 73.268C84.0983 74.0768 84.8548 75.1433 85.3543 76.4991L87.231 75.8077ZM84.3453 71.7093C82.9739 70.6068 81.2614 70.0909 79.2869 70.0909V72.0909C80.9034 72.0909 82.1454 72.5069 83.0922 73.268L84.3453 71.7093ZM79.2869 70.0909C77.3125 70.0909 75.6 70.6068 74.2286 71.7093L75.4817 73.268C76.4285 72.5069 77.6705 72.0909 79.2869 72.0909V70.0909ZM74.2286 71.7093C72.9165 72.7641 71.957 74.1408 71.3429 75.8077L73.2196 76.4991C73.7191 75.1433 74.4756 74.0768 75.4817 73.268L74.2286 71.7093ZM71.3429 75.8077C70.7419 77.439 70.446 79.1877 70.446 81.0455H72.446C72.446 79.4032 72.7069 77.8906 73.2196 76.4991L71.3429 75.8077ZM70.446 81.0455C70.446 82.9031 70.7419 84.6471 71.3438 86.2685L73.2187 85.5724C72.707 84.1938 72.446 82.6878 72.446 81.0455H70.446ZM71.3438 86.2685C71.9588 87.9252 72.9197 89.2911 74.2332 90.3342L75.477 88.768C74.4724 87.9703 73.7174 86.9157 73.2187 85.5724L71.3438 86.2685ZM74.2332 90.3342C75.6045 91.4232 77.3153 91.9318 79.2869 91.9318V89.9318C77.6676 89.9318 76.4239 89.52 75.477 88.768L74.2332 90.3342ZM101.74 92.875L101.214 93.7254L101.22 93.7292L101.74 92.875ZM97.5298 88.1705L96.6294 88.6055L96.6324 88.6116L97.5298 88.1705ZM97.5298 74.0227L96.6285 73.5895L96.6275 73.5916L97.5298 74.0227ZM101.655 69.2159L102.201 70.0537L102.202 70.0529L101.655 69.2159ZM111.899 68.1591L112.223 67.2129L112.223 67.2129L111.899 68.1591ZM115.53 70.375L114.846 71.1045L114.85 71.1083L115.53 70.375ZM118.138 74.3977L119.07 74.0362L119.07 74.0362L118.138 74.3977ZM119.109 82.2727V83.2727H120.109V82.2727H119.109ZM98.9276 82.2727H97.9276V83.2727H98.9276V82.2727ZM98.9276 78.7955V77.7955H97.9276V78.7955H98.9276ZM115.018 78.7955V79.7955H116.018V78.7955H115.018ZM114.132 74.8409L113.238 75.2881L113.241 75.2951L114.132 74.8409ZM111.643 72.0966L111.112 72.9436L111.116 72.9461L111.643 72.0966ZM103.7 72.2841L104.261 73.1124L104.262 73.1112L103.7 72.2841ZM101.024 75.3523L100.128 74.9083L100.128 74.9083L101.024 75.3523ZM101.109 86.7557L100.213 87.2L100.218 87.2088L101.109 86.7557ZM103.99 89.875L103.486 90.7388L103.492 90.7423L103.99 89.875ZM111.132 90.4886L111.46 91.4335L111.467 91.4309L111.132 90.4886ZM113.365 89.125L114.059 89.8451L114.066 89.8386L113.365 89.125ZM114.814 86.8409L115.084 85.8781L114.2 85.6299L113.878 86.4898L114.814 86.8409ZM118.7 87.9318L119.655 88.2282L119.96 87.2468L118.971 86.969L118.7 87.9318ZM116.638 91.4091L117.353 92.1079L117.357 92.1038L116.638 91.4091ZM113.058 93.7273L113.417 94.6608L113.423 94.6583L113.058 93.7273ZM108.268 93.5455C105.896 93.5455 103.907 93.0233 102.26 92.0208L101.22 93.7292C103.232 94.954 105.595 95.5455 108.268 95.5455V93.5455ZM102.266 92.0246C100.616 91.0033 99.3372 89.5806 98.4273 87.7293L96.6324 88.6116C97.6997 90.783 99.2281 92.4967 101.214 93.7254L102.266 92.0246ZM98.4302 87.7354C97.53 85.8722 97.0639 83.6737 97.0639 81.1136H95.0639C95.0639 83.9172 95.5751 86.4233 96.6294 88.6055L98.4302 87.7354ZM97.0639 81.1136C97.0639 78.5539 97.5299 76.3422 98.4321 74.4538L96.6275 73.5916C95.5752 75.7941 95.0639 78.3097 95.0639 81.1136H97.0639ZM98.4311 74.4559C99.3475 72.5494 100.606 71.0931 102.201 70.0537L101.109 68.3781C99.1813 69.6341 97.6894 71.3825 96.6285 73.5895L98.4311 74.4559ZM102.202 70.0529C103.794 69.0123 105.667 68.4773 107.859 68.4773V66.4773C105.325 66.4773 103.061 67.1014 101.108 68.3789L102.202 70.0529ZM107.859 68.4773C109.11 68.4773 110.347 68.6853 111.576 69.1053L112.223 67.2129C110.792 66.7238 109.336 66.4773 107.859 66.4773V68.4773ZM111.576 69.1053C112.763 69.5111 113.852 70.1724 114.846 71.1045L116.214 69.6455C115.026 68.5321 113.695 67.7162 112.223 67.2129L111.576 69.1053ZM114.85 71.1083C115.809 71.9976 116.601 73.2018 117.205 74.7593L119.07 74.0362C118.379 72.2528 117.432 70.7752 116.21 69.6417L114.85 71.1083ZM117.205 74.7593C117.795 76.2808 118.109 78.2066 118.109 80.5682H120.109C120.109 78.0434 119.776 75.8555 119.07 74.0362L117.205 74.7593ZM118.109 80.5682V82.2727H120.109V80.5682H118.109ZM119.109 81.2727H98.9276V83.2727H119.109V81.2727ZM99.9276 82.2727V78.7955H97.9276V82.2727H99.9276ZM98.9276 79.7955H115.018V77.7955H98.9276V79.7955ZM116.018 78.7955C116.018 77.1819 115.695 75.7045 115.023 74.3867L113.241 75.2951C113.751 76.2955 114.018 77.4545 114.018 78.7955H116.018ZM115.027 74.3937C114.366 73.0726 113.411 72.0171 112.171 71.2471L111.116 72.9461C112.035 73.5169 112.739 74.291 113.238 75.2881L115.027 74.3937ZM112.175 71.2496C110.924 70.4646 109.473 70.0909 107.859 70.0909V72.0909C109.155 72.0909 110.226 72.3877 111.112 72.9436L112.175 71.2496ZM107.859 70.0909C106.084 70.0909 104.496 70.5344 103.138 71.457L104.262 73.1112C105.246 72.4429 106.43 72.0909 107.859 72.0909V70.0909ZM103.14 71.4558C101.837 72.3374 100.829 73.4929 100.128 74.9083L101.92 75.7963C102.469 74.6889 103.246 73.7989 104.261 73.1124L103.14 71.4558ZM100.128 74.9083C99.433 76.3112 99.0866 77.8159 99.0866 79.4091H101.087C101.087 78.1159 101.365 76.9161 101.92 75.7963L100.128 74.9083ZM99.0866 79.4091V81.7273H101.087V79.4091H99.0866ZM99.0866 81.7273C99.0866 83.8157 99.4464 85.6529 100.213 87.1999L102.005 86.3114C101.409 85.1084 101.087 83.5934 101.087 81.7273H99.0866ZM100.218 87.2088C100.991 88.73 102.08 89.9186 103.486 90.7388L104.494 89.0112C103.445 88.3996 102.614 87.5086 102.001 86.3025L100.218 87.2088ZM103.492 90.7423C104.892 91.546 106.495 91.9318 108.268 91.9318V89.9318C106.792 89.9318 105.542 89.6131 104.488 89.0077L103.492 90.7423ZM108.268 91.9318C109.418 91.9318 110.486 91.7711 111.46 91.4335L110.805 89.5438C110.074 89.7971 109.232 89.9318 108.268 89.9318V91.9318ZM111.467 91.4309C112.457 91.0792 113.326 90.5516 114.059 89.8451L112.671 88.4049C112.154 88.9029 111.534 89.2845 110.797 89.5463L111.467 91.4309ZM114.066 89.8386C114.806 89.1121 115.364 88.2227 115.75 87.192L113.878 86.4898C113.582 87.2773 113.175 87.9106 112.664 88.4114L114.066 89.8386ZM114.544 87.8037L118.43 88.8946L118.971 86.969L115.084 85.8781L114.544 87.8037ZM117.745 87.6354C117.383 88.8031 116.777 89.826 115.919 90.7144L117.357 92.1038C118.431 90.9922 119.2 89.6969 119.655 88.2282L117.745 87.6354ZM115.923 90.7103C115.065 91.5875 113.996 92.2857 112.693 92.7962L113.423 94.6583C114.962 94.0552 116.278 93.208 117.353 92.1079L115.923 90.7103ZM112.7 92.7937C111.411 93.2886 109.939 93.5455 108.268 93.5455V95.5455C110.144 95.5455 111.865 95.2568 113.417 94.6608L112.7 92.7937ZM153.234 86.0909L152.338 85.6467L152.338 85.6467L153.234 86.0909ZM147.763 92.2955L148.294 93.1425L148.294 93.1425L147.763 92.2955ZM131.876 92.2955L131.345 93.1425L131.345 93.1425L131.876 92.2955ZM126.405 86.0909L127.301 85.6467L127.301 85.6467L126.405 86.0909ZM147.763 60.7955L148.294 59.9484L148.294 59.9484L147.763 60.7955ZM153.234 67L152.338 67.4442L152.338 67.4442L153.234 67ZM149.621 68.892L148.72 69.3254L148.721 69.3294L149.621 68.892ZM145.547 64.1705L145.016 65.0178L145.018 65.0194L145.547 64.1705ZM134.075 64.1705L133.547 63.3215L133.544 63.3231L134.075 64.1705ZM130.001 68.892L129.102 68.4547L129.1 68.4587L130.001 68.892ZM130.001 84.1989L129.1 84.6322L129.102 84.6362L130.001 84.1989ZM134.075 88.9205L133.544 89.7678L133.547 89.7694L134.075 88.9205ZM145.547 88.9205L145.018 88.0715L145.016 88.0731L145.547 88.9205ZM149.621 84.1989L148.721 83.7615L148.72 83.7655L149.621 84.1989ZM154.229 76.5455C154.229 80.108 153.586 83.1311 152.338 85.6467L154.13 86.5351C155.542 83.6871 156.229 80.3466 156.229 76.5455H154.229ZM152.338 85.6467C151.083 88.1792 149.379 90.101 147.231 91.4484L148.294 93.1425C150.783 91.5808 152.727 89.3662 154.13 86.5351L152.338 85.6467ZM147.231 91.4484C145.086 92.7943 142.626 93.4773 139.82 93.4773V95.4773C142.968 95.4773 145.803 94.7057 148.294 93.1425L147.231 91.4484ZM139.82 93.4773C137.013 93.4773 134.553 92.7943 132.408 91.4484L131.345 93.1425C133.836 94.7057 136.671 95.4773 139.82 95.4773V93.4773ZM132.408 91.4484C130.261 90.101 128.556 88.1792 127.301 85.6467L125.509 86.5351C126.912 89.3662 128.856 91.5808 131.345 93.1425L132.408 91.4484ZM127.301 85.6467C126.054 83.1311 125.411 80.108 125.411 76.5455H123.411C123.411 80.3466 124.097 83.6871 125.509 86.5351L127.301 85.6467ZM125.411 76.5455C125.411 72.9829 126.054 69.9598 127.301 67.4442L125.509 66.5558C124.097 69.4038 123.411 72.7443 123.411 76.5455H125.411ZM127.301 67.4442C128.556 64.9117 130.261 62.9899 132.408 61.6425L131.345 59.9484C128.856 61.5101 126.912 63.7247 125.509 66.5558L127.301 67.4442ZM132.408 61.6425C134.553 60.2966 137.013 59.6136 139.82 59.6136V57.6136C136.671 57.6136 133.836 58.3852 131.345 59.9484L132.408 61.6425ZM139.82 59.6136C142.626 59.6136 145.086 60.2966 147.231 61.6425L148.294 59.9484C145.803 58.3852 142.968 57.6136 139.82 57.6136V59.6136ZM147.231 61.6425C149.379 62.9899 151.083 64.9117 152.338 67.4442L154.13 66.5558C152.727 63.7247 150.783 61.5101 148.294 59.9484L147.231 61.6425ZM152.338 67.4442C153.586 69.9598 154.229 72.9829 154.229 76.5455H156.229C156.229 72.7443 155.542 69.4038 154.13 66.5558L152.338 67.4442ZM152.138 76.5455C152.138 73.4159 151.615 70.7057 150.52 68.4547L148.721 69.3294C149.649 71.2375 150.138 73.6295 150.138 76.5455H152.138ZM150.522 68.4587C149.452 66.2329 147.974 64.5037 146.075 63.3215L145.018 65.0194C146.551 65.9736 147.79 67.3921 148.72 69.3254L150.522 68.4587ZM146.078 63.3231C144.206 62.15 142.111 61.5682 139.82 61.5682V63.5682C141.755 63.5682 143.479 64.0545 145.016 65.0178L146.078 63.3231ZM139.82 61.5682C137.528 61.5682 135.429 62.15 133.547 63.3215L134.604 65.0194C136.154 64.0546 137.884 63.5682 139.82 63.5682V61.5682ZM133.544 63.3231C131.658 64.5049 130.183 66.2324 129.102 68.4547L130.901 69.3294C131.843 67.3926 133.083 65.9723 134.606 65.0178L133.544 63.3231ZM129.1 68.4587C128.018 70.7086 127.501 73.4173 127.501 76.5455H129.501C129.501 73.6282 129.985 71.2346 130.903 69.3254L129.1 68.4587ZM127.501 76.5455C127.501 79.6736 128.018 82.3823 129.1 84.6322L130.903 83.7655C129.985 81.8563 129.501 79.4628 129.501 76.5455H127.501ZM129.102 84.6362C130.183 86.8585 131.658 88.586 133.544 89.7678L134.606 88.0731C133.083 87.1186 131.843 85.6983 130.901 83.7615L129.102 84.6362ZM133.547 89.7694C135.429 90.9409 137.528 91.5227 139.82 91.5227V89.5227C137.884 89.5227 136.154 89.0363 134.604 88.0715L133.547 89.7694ZM139.82 91.5227C142.111 91.5227 144.206 90.9409 146.078 89.7678L145.016 88.0731C143.479 89.0364 141.755 89.5227 139.82 89.5227V91.5227ZM146.075 89.7694C147.974 88.5872 149.452 86.858 150.522 84.6322L148.72 83.7655C147.79 85.6988 146.551 87.1173 145.018 88.0715L146.075 89.7694ZM150.52 84.6362C151.615 82.3852 152.138 79.675 152.138 76.5455H150.138C150.138 79.4614 149.649 81.8534 148.721 83.7615L150.52 84.6362ZM190.018 59.0909H191.018V58.0909H190.018V59.0909ZM190.018 94V95H191.018V94H190.018ZM185.928 94L185.106 94.5702L185.404 95H185.928V94ZM166.905 66.5909L167.726 66.0207L167.428 65.5909H166.905V66.5909ZM166.564 66.5909V65.5909H165.564V66.5909H166.564ZM166.564 94V95H167.564V94H166.564ZM162.337 94H161.337V95H162.337V94ZM162.337 59.0909V58.0909H161.337V59.0909H162.337ZM166.428 59.0909L167.249 58.5203L166.95 58.0909H166.428V59.0909ZM185.518 86.5682L184.697 87.1388L184.996 87.5682H185.518V86.5682ZM185.859 86.5682V87.5682H186.859V86.5682H185.859ZM185.859 59.0909V58.0909H184.859V59.0909H185.859ZM189.018 59.0909V94H191.018V59.0909H189.018ZM190.018 93H185.928V95H190.018V93ZM186.749 93.4298L167.726 66.0207L166.083 67.1611L185.106 94.5702L186.749 93.4298ZM166.905 65.5909H166.564V67.5909H166.905V65.5909ZM165.564 66.5909V94H167.564V66.5909H165.564ZM166.564 93H162.337V95H166.564V93ZM163.337 94V59.0909H161.337V94H163.337ZM162.337 60.0909H166.428V58.0909H162.337V60.0909ZM165.606 59.6615L184.697 87.1388L186.34 85.9976L167.249 58.5203L165.606 59.6615ZM185.518 87.5682H185.859V85.5682H185.518V87.5682ZM186.859 86.5682V59.0909H184.859V86.5682H186.859ZM185.859 60.0909H190.018V58.0909H185.859V60.0909Z" fill="black" mask="url(#path-2-outside-1_0_1)"/>
</svg>
